<?xml version="1.0" encoding="UTF-8"?>
<svg width="24px" height="24px" viewBox="0 0 24 24" version="1.1" xmlns="http://www.w3.org/2000/svg">
    <path d="M12,0 C18.6274,0 24,5.3726 24,12 C24,18.6274 18.6274,24 12,24 C5.3726,24 0,18.6274 0,12 C0,5.3726 5.3726,0 12,0 Z M16.6644,7.2576 L5.2326,11.5962 C4.3686,11.9382 4.3752,12.3918 5.0682,12.6006 L7.9422,13.4836 L14.9346,9.2814 C15.2886,9.0762 15.6114,9.1856 15.3438,9.4104 L9.7554,14.4642 L9.5142,17.4684 C9.8346,17.4684 9.9762,17.322 10.1574,17.148 L11.5494,15.8028 L14.4714,17.9526 C15.0882,18.2934 15.5334,18.1182 15.6882,17.4684 L17.931,7.9206 C18.1554,7.1214 17.5854,6.7146 16.6644,7.2576 Z" fill="#2196F3"></path>
</svg> 